<svg width="47" height="47" viewBox="0 0 47 47" fill="none" xmlns="http://www.w3.org/2000/svg">
<g clip-path="url(#clip0)">
<path d="M46.2656 38.1875H45.5312V18.8946C46.3383 17.4358 46.8255 15.8219 46.9603 14.1603C47.0952 12.4986 46.8747 10.8273 46.3134 9.25751C45.7522 7.6877 44.8631 6.25541 43.7053 5.05592C42.5475 3.85643 41.1475 2.91724 39.5986 2.30084C38.0496 1.68443 36.3871 1.40494 34.7217 1.48097C33.0563 1.55699 31.4262 1.98678 29.9399 2.74174C28.4535 3.49671 27.1449 4.55954 26.1012 5.85953C25.0575 7.15951 24.3026 8.66685 23.8867 10.2813H5.14062C4.16713 10.2824 3.23384 10.6696 2.54548 11.358C1.85712 12.0464 1.46989 12.9796 1.46875 13.9531V38.1875H0.734375C0.63792 38.1875 0.542399 38.2064 0.453276 38.2433C0.364152 38.2802 0.283173 38.3343 0.214969 38.4025C0.146765 38.4707 0.092673 38.5517 0.0557871 38.6408C0.0189011 38.7299 -5.58691e-05 38.8254 1.23677e-07 38.9219V41.8594C0.00114293 42.8329 0.388367 43.7662 1.07673 44.4545C1.76509 45.1429 2.69838 45.5301 3.67188 45.5313H43.3281C44.3016 45.5301 45.2349 45.1429 45.9233 44.4545C46.6116 43.7662 46.9989 42.8329 47 41.8594V38.9219C47.0001 38.8254 46.9811 38.7299 46.9442 38.6408C46.9073 38.5517 46.8532 38.4707 46.785 38.4025C46.7168 38.3343 46.6358 38.2802 46.5467 38.2433C46.4576 38.2064 46.3621 38.1875 46.2656 38.1875ZM35.25 2.93751C37.4141 2.93482 39.5238 3.61595 41.2778 4.88363C43.0317 6.15132 44.3404 7.94076 45.0168 9.99646C45.6932 12.0522 45.7029 14.269 45.0444 16.3305C44.3859 18.3921 43.0929 20.1928 41.35 21.4757L41.339 21.484C40.1582 22.3593 38.8031 22.9704 37.3654 23.276C35.9278 23.5816 34.4412 23.5745 33.0065 23.2551C31.5719 22.9357 30.2226 22.3116 29.0503 21.4251C27.8781 20.5385 26.9101 19.4102 26.2121 18.1167C26.1979 18.0795 26.1805 18.0435 26.1601 18.0092C25.501 16.7602 25.1084 15.3878 25.0073 13.9791C25.0077 13.97 25.0125 13.9624 25.0125 13.9531C25.0125 13.9377 25.0046 13.9248 25.0037 13.9097C24.9884 13.6803 24.9688 13.4519 24.9688 13.2188C24.9718 10.4929 26.056 7.87964 27.9834 5.95219C29.9109 4.02475 32.5242 2.94056 35.25 2.93751ZM27.5042 22.0313H11.0156C10.8209 22.0311 10.6342 21.9537 10.4965 21.816C10.3588 21.6783 10.2814 21.4916 10.2812 21.2969V19.8281C10.2814 19.6334 10.3588 19.4467 10.4965 19.309C10.6342 19.1713 10.8209 19.0939 11.0156 19.0938H25.0899C25.7308 20.1968 26.5461 21.1888 27.5042 22.0313ZM24.3651 17.625H11.0156C10.4315 17.6256 9.87151 17.858 9.45848 18.271C9.04546 18.684 8.81314 19.244 8.8125 19.8281V21.2969C8.81314 21.881 9.04546 22.441 9.45848 22.854C9.87151 23.2671 10.4315 23.4994 11.0156 23.5H29.5742C31.3447 24.4834 33.3405 24.9894 35.3656 24.9681C37.3908 24.9469 39.3755 24.3992 41.125 23.3789V35.25H5.875V14.6875H23.602C23.7272 15.6958 23.9838 16.6833 24.3651 17.625ZM2.9375 13.9531C2.93814 13.369 3.17046 12.809 3.58348 12.396C3.99651 11.983 4.55652 11.7506 5.14062 11.75H23.602C23.5374 12.237 23.5033 12.7275 23.5 13.2188H5.14062C5.04417 13.2187 4.94865 13.2377 4.85953 13.2745C4.7704 13.3114 4.68942 13.3655 4.62122 13.4337C4.55301 13.5019 4.49892 13.5829 4.46204 13.672C4.42515 13.7612 4.40619 13.8567 4.40625 13.9531V35.9844C4.40619 36.0808 4.42515 36.1764 4.46204 36.2655C4.49892 36.3546 4.55301 36.4356 4.62122 36.5038C4.68942 36.572 4.7704 36.6261 4.85953 36.663C4.94865 36.6999 5.04417 36.7188 5.14062 36.7188H41.8594C41.9558 36.7188 42.0513 36.6999 42.1405 36.663C42.2296 36.6261 42.3106 36.572 42.3788 36.5038C42.447 36.4356 42.5011 36.3546 42.538 36.2655C42.5748 36.1764 42.5938 36.0808 42.5938 35.9844V22.3764C43.123 21.9488 43.6144 21.4765 44.0625 20.9645V38.1875H31.5781C30.994 38.1881 30.434 38.4205 30.021 38.8335C29.608 39.2465 29.3756 39.8065 29.375 40.3906C29.3749 40.5854 29.2975 40.7721 29.1598 40.9098C29.0221 41.0475 28.8354 41.1249 28.6406 41.125H18.3594C18.1646 41.1249 17.9779 41.0475 17.8402 40.9098C17.7025 40.7721 17.6251 40.5854 17.625 40.3906C17.6244 39.8065 17.392 39.2465 16.979 38.8335C16.566 38.4205 16.006 38.1881 15.4219 38.1875H2.9375V13.9531ZM45.5312 41.8594C45.5306 42.4435 45.2983 43.0035 44.8853 43.4165C44.4722 43.8296 43.9122 44.0619 43.3281 44.0625H3.67188C3.08777 44.0619 2.52776 43.8296 2.11473 43.4165C1.70171 43.0035 1.46939 42.4435 1.46875 41.8594V39.6563H15.4219C15.6166 39.6564 15.8033 39.7338 15.941 39.8715C16.0787 40.0092 16.1561 40.1959 16.1562 40.3906C16.1569 40.9747 16.3892 41.5347 16.8022 41.9478C17.2153 42.3608 17.7753 42.5931 18.3594 42.5938H28.6406C29.2247 42.5931 29.7847 42.3608 30.1978 41.9478C30.6108 41.5347 30.8431 40.9747 30.8438 40.3906C30.8439 40.1959 30.9213 40.0092 31.059 39.8715C31.1967 39.7338 31.3834 39.6564 31.5781 39.6563H45.5312V41.8594ZM22.7656 30.8438H9.54688C9.35211 30.8438 9.16532 30.9211 9.02759 31.0589C8.88987 31.1966 8.8125 31.3834 8.8125 31.5781C8.8125 31.7729 8.88987 31.9597 9.02759 32.0974C9.16532 32.2351 9.35211 32.3125 9.54688 32.3125H22.7656C22.9604 32.3125 23.1472 32.2351 23.2849 32.0974C23.4226 31.9597 23.5 31.7729 23.5 31.5781C23.5 31.3834 23.4226 31.1966 23.2849 31.0589C23.1472 30.9211 22.9604 30.8438 22.7656 30.8438ZM34.9753 15.4047C35.0679 15.4161 35.1611 15.4218 35.2543 15.4219C35.7089 15.4214 36.1522 15.2798 36.5229 15.0168C36.8937 14.7537 37.1736 14.3821 37.3242 13.9531H38.5547C38.7495 13.9531 38.9362 13.8758 39.074 13.738C39.2117 13.6003 39.2891 13.4135 39.2891 13.2188C39.2891 13.024 39.2117 12.8372 39.074 12.6995C38.9362 12.5618 38.7495 12.4844 38.5547 12.4844H37.3175C37.2132 12.1736 37.0386 11.8911 36.8074 11.6587C36.5762 11.4263 36.2946 11.2504 35.9844 11.1445V9.1797C35.9844 8.98493 35.907 8.79814 35.7693 8.66042C35.6316 8.52269 35.4448 8.44532 35.25 8.44532C35.0552 8.44532 34.8684 8.52269 34.7307 8.66042C34.593 8.79814 34.5156 8.98493 34.5156 9.1797V11.1524C34.0489 11.3173 33.6514 11.6348 33.3877 12.0538C33.124 12.4727 33.0095 12.9683 33.0627 13.4605C33.1159 13.9526 33.3337 14.4124 33.6809 14.7652C34.028 15.1181 34.4841 15.3434 34.9753 15.4047ZM34.7996 12.6393C34.9277 12.5388 35.0858 12.4842 35.2485 12.4844C35.2797 12.4845 35.3108 12.4865 35.3418 12.4901C35.5107 12.5111 35.6671 12.5901 35.7843 12.7135C35.9015 12.8369 35.9723 12.9971 35.9846 13.1669C35.997 13.3367 35.95 13.5054 35.8518 13.6445C35.7536 13.7835 35.6102 13.8842 35.4461 13.9293C35.282 13.9745 35.1073 13.9613 34.9518 13.8921C34.7963 13.8228 34.6696 13.7018 34.5934 13.5497C34.5171 13.3975 34.496 13.2236 34.5336 13.0576C34.5712 12.8916 34.6652 12.7437 34.7996 12.6393H34.7996ZM9.54688 27.9063H25.7031C25.8979 27.9063 26.0847 27.8289 26.2224 27.6912C26.3601 27.5534 26.4375 27.3667 26.4375 27.1719C26.4375 26.9771 26.3601 26.7903 26.2224 26.6526C26.0847 26.5149 25.8979 26.4375 25.7031 26.4375H9.54688C9.35211 26.4375 9.16532 26.5149 9.02759 26.6526C8.88987 26.7903 8.8125 26.9771 8.8125 27.1719C8.8125 27.3667 8.88987 27.5534 9.02759 27.6912C9.16532 27.8289 9.35211 27.9063 9.54688 27.9063ZM35.25 22.0313C36.9929 22.0313 38.6968 21.5144 40.146 20.5461C41.5952 19.5778 42.7247 18.2014 43.3917 16.5912C44.0587 14.9809 44.2332 13.209 43.8932 11.4995C43.5531 9.79007 42.7138 8.21983 41.4814 6.98738C40.2489 5.75493 38.6787 4.91562 36.9692 4.57559C35.2598 4.23556 33.4879 4.41007 31.8776 5.07707C30.2673 5.74407 28.891 6.87359 27.9227 8.3228C26.9543 9.77201 26.4375 11.4758 26.4375 13.2188C26.4401 15.5552 27.3693 17.7952 29.0214 19.4473C30.6735 21.0994 32.9136 22.0287 35.25 22.0313ZM35.25 5.87501C36.7025 5.87501 38.1223 6.30571 39.33 7.11265C40.5376 7.9196 41.4789 9.06653 42.0347 10.4084C42.5906 11.7503 42.736 13.2269 42.4526 14.6515C42.1693 16.076 41.4699 17.3845 40.4428 18.4116C39.4158 19.4386 38.1072 20.138 36.6827 20.4214C35.2581 20.7048 33.7816 20.5593 32.4397 20.0035C31.0978 19.4477 29.9508 18.5064 29.1439 17.2987C28.337 16.0911 27.9062 14.6712 27.9062 13.2188C27.9085 11.2718 28.683 9.4052 30.0597 8.02847C31.4364 6.65175 33.303 5.8773 35.25 5.87501Z" fill="#B72851"/>
</g>
<defs>
<clipPath id="clip0">
<rect width="47" height="47" fill="white"/>
</clipPath>
</defs>
</svg>
