<svg width="52" height="52" viewBox="0 0 52 52" fill="none" xmlns="http://www.w3.org/2000/svg">
<path d="M49.5625 21.5638C48.5096 21.5642 47.4802 21.2523 46.6046 20.6676C45.729 20.0829 45.0465 19.2515 44.6435 18.2788C44.2405 17.3061 44.1351 16.2356 44.3407 15.203C44.5462 14.1703 45.0534 13.2218 45.7982 12.4776C45.9505 12.3252 46.0361 12.1186 46.0361 11.9031C46.0361 11.6877 45.9505 11.4811 45.7982 11.3287L40.6713 6.20181C40.5189 6.04949 40.3123 5.96392 40.0969 5.96392C39.8814 5.96392 39.6748 6.04949 39.5224 6.20181C39.0389 6.70023 38.46 7.09638 37.8204 7.36674C37.1807 7.63709 36.4932 7.77614 35.7988 7.77562C35.0942 7.78407 34.3951 7.65194 33.7423 7.38697C33.0895 7.122 32.4961 6.72951 31.9967 6.23245C31.4974 5.7354 31.1022 5.14376 30.8343 4.49215C30.5663 3.84053 30.431 3.14203 30.4362 2.4375C30.4362 2.22201 30.3506 2.01535 30.1983 1.86298C30.0459 1.7106 29.8392 1.625 29.6237 1.625H22.3763C22.1608 1.625 21.9541 1.7106 21.8017 1.86298C21.6494 2.01535 21.5638 2.22201 21.5638 2.4375C21.569 3.14203 21.4337 3.84053 21.1657 4.49215C20.8978 5.14376 20.5026 5.7354 20.0033 6.23245C19.5039 6.72951 18.9105 7.122 18.2577 7.38697C17.6049 7.65194 16.9058 7.78407 16.2013 7.77562C15.5068 7.77614 14.8193 7.63709 14.1796 7.36674C13.54 7.09638 12.9611 6.70023 12.4776 6.20181C12.3252 6.04949 12.1186 5.96392 11.9031 5.96392C11.6877 5.96392 11.4811 6.04949 11.3287 6.20181L6.20181 11.3287C6.04949 11.4811 5.96392 11.6877 5.96392 11.9031C5.96392 12.1186 6.04949 12.3252 6.20181 12.4776C6.70071 12.9608 7.09718 13.5395 7.36758 14.1793C7.63797 14.819 7.77674 15.5067 7.77562 16.2013C7.78396 16.9057 7.65176 17.6048 7.38675 18.2576C7.12174 18.9103 6.72924 19.5037 6.23221 20.003C5.73517 20.5023 5.14358 20.8975 4.49202 21.1655C3.84045 21.4335 3.142 21.5689 2.4375 21.5638C2.22201 21.5638 2.01535 21.6494 1.86298 21.8017C1.7106 21.9541 1.625 22.1608 1.625 22.3763V29.6237C1.625 29.8392 1.7106 30.0459 1.86298 30.1983C2.01535 30.3506 2.22201 30.4362 2.4375 30.4362C3.142 30.4311 3.84045 30.5665 4.49202 30.8345C5.14358 31.1025 5.73517 31.4977 6.23221 31.997C6.72924 32.4963 7.12174 33.0897 7.38675 33.7424C7.65176 34.3952 7.78396 35.0943 7.77562 35.7988C7.77674 36.4933 7.63797 37.181 7.36758 37.8207C7.09718 38.4605 6.70071 39.0392 6.20181 39.5224C6.04949 39.6748 5.96392 39.8814 5.96392 40.0969C5.96392 40.3123 6.04949 40.5189 6.20181 40.6713L11.3287 45.7982C11.4811 45.9505 11.6877 46.0361 11.9031 46.0361C12.1186 46.0361 12.3252 45.9505 12.4776 45.7982C12.9611 45.2998 13.54 44.9036 14.1796 44.6333C14.8193 44.3629 15.5068 44.2239 16.2013 44.2244C16.9452 44.2234 17.6812 44.3773 18.3625 44.6761L19.0125 43.1876C18.1264 42.7985 17.169 42.5981 16.2013 42.5994C14.649 42.6014 13.1439 43.1331 11.9348 44.1066L7.89344 40.0652C8.86722 38.8563 9.39896 37.3511 9.40062 35.7988C9.41803 34.0848 8.79851 32.4254 7.66214 31.1423C6.52576 29.8591 4.95347 29.0435 3.25 28.8535V23.1465C4.95347 22.9565 6.52576 22.1409 7.66214 20.8577C8.79851 19.5746 9.41803 17.9152 9.40062 16.2013C9.39896 14.6489 8.86722 13.1437 7.89344 11.9348L11.9348 7.89344C13.1439 8.86688 14.649 9.39857 16.2013 9.40062C17.9151 9.41785 19.5744 8.79826 20.8576 7.66192C22.1407 6.52559 22.9564 4.9534 23.1465 3.25H28.8535C29.0436 4.9534 29.8593 6.52559 31.1424 7.66192C32.4256 8.79826 34.0849 9.41785 35.7988 9.40062C37.351 9.39857 38.8561 8.86688 40.0652 7.89344L44.1066 11.9348C43.341 12.9053 42.8481 14.0624 42.6786 15.2868C42.509 16.5112 42.6691 17.7587 43.1421 18.9007C43.6152 20.0427 44.3842 21.0379 45.3699 21.7838C46.3556 22.5297 47.5224 22.9992 48.75 23.1441V28.8535C47.0465 29.0435 45.4742 29.8591 44.3379 31.1423C43.2015 32.4254 42.582 34.0848 42.5994 35.7988C42.601 37.3511 43.1328 38.8563 44.1066 40.0652L40.0652 44.1066C39.0777 43.33 37.8987 42.8347 36.6528 42.6729C35.407 42.5112 34.1406 42.689 32.9875 43.1876L33.6375 44.6761C34.3188 44.3773 35.0548 44.2234 35.7988 44.2244C36.4932 44.2239 37.1807 44.3629 37.8204 44.6333C38.46 44.9036 39.0389 45.2998 39.5224 45.7982C39.6748 45.9505 39.8814 46.0361 40.0969 46.0361C40.3123 46.0361 40.5189 45.9505 40.6713 45.7982L45.7982 40.6713C45.9505 40.5189 46.0361 40.3123 46.0361 40.0969C46.0361 39.8814 45.9505 39.6748 45.7982 39.5224C45.2993 39.0392 44.9028 38.4605 44.6324 37.8207C44.362 37.181 44.2233 36.4933 44.2244 35.7988C44.216 35.0943 44.3482 34.3952 44.6133 33.7424C44.8783 33.0897 45.2708 32.4963 45.7678 31.997C46.2648 31.4977 46.8564 31.1025 47.508 30.8345C48.1595 30.5665 48.858 30.4311 49.5625 30.4362C49.778 30.4362 49.9847 30.3506 50.137 30.1983C50.2894 30.0459 50.375 29.8392 50.375 29.6237V22.3763C50.375 22.1608 50.2894 21.9541 50.137 21.8017C49.9847 21.6494 49.778 21.5638 49.5625 21.5638Z" fill="#B72851"/>
<path d="M18.688 31.6875H22.2711V30.0625H19.5005V18.6876H32.5005V30.0625H29.7299V31.6875H33.313C33.5285 31.6875 33.7351 31.6019 33.8875 31.4496C34.0399 31.2972 34.1255 31.0905 34.1255 30.875V18.6876H34.938C35.1235 18.6874 35.3034 18.6238 35.4477 18.5073C35.5921 18.3909 35.6923 18.2285 35.7315 18.0472C35.7708 17.8659 35.7469 17.6766 35.6637 17.5108C35.5806 17.345 35.4432 17.2126 35.2744 17.1357L26.3369 13.0732C26.2312 13.0251 26.1165 13.0003 26.0005 13.0003C25.8844 13.0003 25.7697 13.0251 25.6641 13.0732L16.7266 17.1357C16.5578 17.2126 16.4204 17.345 16.3372 17.5108C16.254 17.6766 16.2301 17.8659 16.2694 18.0472C16.3087 18.2285 16.4089 18.3909 16.5532 18.5073C16.6976 18.6238 16.8775 18.6874 17.063 18.6876H17.8755V30.875C17.8755 31.0905 17.9611 31.2972 18.1135 31.4496C18.2658 31.6019 18.4725 31.6875 18.688 31.6875ZM26.0005 14.7063L31.1875 17.0626H20.8135L26.0005 14.7063Z" fill="#B72851"/>
<path d="M42.25 26C42.2504 23.1267 41.4889 20.3047 40.0432 17.8216C38.5975 15.3385 36.5192 13.2831 34.0203 11.865C31.5213 10.4468 28.691 9.71665 25.8179 9.74885C22.9448 9.78105 20.1316 10.5745 17.665 12.0483C15.1985 13.5221 13.1668 15.6235 11.7771 18.1384C10.3874 20.6533 9.68935 23.4917 9.75413 26.3642C9.81892 29.2368 10.6442 32.0408 12.1459 34.4905C13.6475 36.9402 15.7719 38.9479 18.3024 40.309L19.0726 38.8774C16.204 37.3345 13.9325 34.8782 12.6183 31.8979C11.3041 28.9175 11.0224 25.5838 11.8179 22.4252C12.6134 19.2666 14.4406 16.464 17.0097 14.4617C19.5788 12.4594 22.7428 11.3721 26 11.3721C29.2572 11.3721 32.4212 12.4594 34.9903 14.4617C37.5594 16.464 39.3866 19.2666 40.1821 22.4252C40.9776 25.5838 40.696 28.9175 39.3817 31.8979C38.0675 34.8782 35.796 37.3345 32.9274 38.8774L33.6976 40.309C36.2843 38.9207 38.4458 36.8566 39.9519 34.3368C41.458 31.8169 42.2522 28.9357 42.25 26Z" fill="#B72851"/>
<path d="M28.4375 23.4V23.1562C28.4256 22.6948 28.2589 22.2507 27.9641 21.8955C27.6694 21.5402 27.2638 21.2943 26.8125 21.1973V20.3125H25.1875V21.1973C24.7362 21.2943 24.3306 21.5402 24.0359 21.8955C23.7412 22.2507 23.5744 22.6948 23.5625 23.1562C23.5818 23.7125 23.8206 24.2385 24.2267 24.6192C24.6328 24.9998 25.1731 25.2042 25.7294 25.1875H26.2706C26.5639 25.1875 26.8125 25.3736 26.8125 25.5938C26.8125 25.8139 26.5639 26 26.2706 26H25.7294C25.4361 26 25.1875 25.8139 25.1875 25.5938V25.35H23.5625V25.5938C23.5744 26.0552 23.7412 26.4993 24.0359 26.8545C24.3306 27.2098 24.7362 27.4557 25.1875 27.5527V28.4375H26.8125V27.5527C27.2638 27.4557 27.6694 27.2098 27.9641 26.8545C28.2589 26.4993 28.4256 26.0552 28.4375 25.5938C28.4182 25.0375 28.1794 24.5115 27.7733 24.1308C27.3672 23.7502 26.8269 23.5458 26.2706 23.5625H25.7294C25.4361 23.5625 25.1875 23.3764 25.1875 23.1562C25.1875 22.9361 25.4361 22.75 25.7294 22.75H26.2706C26.5639 22.75 26.8125 22.9361 26.8125 23.1562V23.4H28.4375ZM28.8738 41.3034C29.7047 40.6971 30.3225 39.8434 30.6388 38.8646C30.9551 37.8859 30.9537 36.8321 30.6348 35.8542C30.3159 34.8763 29.6958 34.0243 28.8634 33.4201C28.0309 32.8159 27.0286 32.4906 26 32.4906C24.9714 32.4906 23.9691 32.8159 23.1366 33.4201C22.3042 34.0243 21.6841 34.8763 21.3652 35.8542C21.0463 36.8321 21.0449 37.8859 21.3612 38.8646C21.6775 39.8434 22.2953 40.6971 23.1262 41.3034C22.0391 41.8393 21.1235 42.6683 20.4828 43.697C19.842 44.7257 19.5016 45.9131 19.5 47.125V49.5625C19.5 49.778 19.5856 49.9847 19.738 50.137C19.8903 50.2894 20.097 50.375 20.3125 50.375H31.6875C31.903 50.375 32.1097 50.2894 32.262 50.137C32.4144 49.9847 32.5 49.778 32.5 49.5625V47.125C32.4984 45.9131 32.158 44.7257 31.5172 43.697C30.8765 42.6683 29.9609 41.8393 28.8738 41.3034ZM22.75 37.375C22.75 36.7322 22.9406 36.1039 23.2977 35.5694C23.6548 35.0349 24.1624 34.6184 24.7563 34.3724C25.3501 34.1264 26.0036 34.062 26.634 34.1874C27.2645 34.3128 27.8436 34.6224 28.2981 35.0769C28.7526 35.5314 29.0622 36.1105 29.1876 36.741C29.313 37.3714 29.2486 38.0249 29.0026 38.6187C28.7566 39.2126 28.3401 39.7202 27.8056 40.0773C27.2711 40.4344 26.6428 40.625 26 40.625C25.138 40.625 24.3114 40.2826 23.7019 39.6731C23.0924 39.0636 22.75 38.237 22.75 37.375ZM30.875 48.75H21.125V47.125C21.125 45.8321 21.6386 44.5921 22.5529 43.6779C23.4671 42.7636 24.7071 42.25 26 42.25C27.2929 42.25 28.5329 42.7636 29.4471 43.6779C30.3614 44.5921 30.875 45.8321 30.875 47.125V48.75Z" fill="#B72851"/>
</svg>
