<svg width="63" height="63" viewBox="0 0 63 63" fill="none" xmlns="http://www.w3.org/2000/svg">
<path d="M13.2891 59.0625H9.35156C9.05625 59.0625 8.85938 58.8656 8.85938 58.5703V38.8828C8.85938 38.5875 9.05625 38.3906 9.35156 38.3906H13.2891C13.5844 38.3906 13.7812 38.5875 13.7812 38.8828V58.5703C13.7812 58.8656 13.5844 59.0625 13.2891 59.0625ZM9.84375 58.0781H12.7969V39.375H9.84375V58.0781Z" fill="#B72851"/>
<path d="M17.2266 59.0625H13.2891C12.9937 59.0625 12.7969 58.8656 12.7969 58.5703V30.0234C12.7969 29.7281 12.9937 29.5312 13.2891 29.5312H17.2266C17.5219 29.5312 17.7188 29.7281 17.7188 30.0234V58.5703C17.7188 58.8656 17.5219 59.0625 17.2266 59.0625ZM13.7812 58.0781H16.7344V30.5156H13.7812V58.0781Z" fill="#B72851"/>
<path d="M21.1641 59.0625H17.2266C16.9312 59.0625 16.7344 58.8656 16.7344 58.5703V47.7422C16.7344 47.4469 16.9312 47.25 17.2266 47.25H21.1641C21.4594 47.25 21.6562 47.4469 21.6562 47.7422V58.5703C21.6562 58.8656 21.4594 59.0625 21.1641 59.0625ZM17.7188 58.0781H20.6719V48.2344H17.7188V58.0781ZM30.0234 59.0625H26.0859C25.7906 59.0625 25.5938 58.8656 25.5938 58.5703V23.1328C25.5938 22.8375 25.7906 22.6406 26.0859 22.6406H30.0234C30.3188 22.6406 30.5156 22.8375 30.5156 23.1328V58.5703C30.5156 58.8656 30.3188 59.0625 30.0234 59.0625ZM26.5781 58.0781H29.5312V23.625H26.5781V58.0781Z" fill="#B72851"/>
<path d="M33.9609 59.0625H30.0234C29.7281 59.0625 29.5312 58.8656 29.5312 58.5703V32.9766C29.5312 32.6812 29.7281 32.4844 30.0234 32.4844H33.9609C34.2562 32.4844 34.4531 32.6812 34.4531 32.9766V58.5703C34.4531 58.8656 34.2562 59.0625 33.9609 59.0625ZM30.5156 58.0781H33.4688V33.4688H30.5156V58.0781Z" fill="#B72851"/>
<path d="M37.8984 59.0625H33.9609C33.6656 59.0625 33.4688 58.8656 33.4688 58.5703V15.2578C33.4688 14.9625 33.6656 14.7656 33.9609 14.7656H37.8984C38.1937 14.7656 38.3906 14.9625 38.3906 15.2578V58.5703C38.3906 58.8656 38.1937 59.0625 37.8984 59.0625ZM34.4531 58.0781H37.4062V15.75H34.4531V58.0781ZM46.7578 59.0625H42.8203C42.525 59.0625 42.3281 58.8656 42.3281 58.5703V42.8203C42.3281 42.525 42.525 42.3281 42.8203 42.3281H46.7578C47.0531 42.3281 47.25 42.525 47.25 42.8203V58.5703C47.25 58.8656 47.0531 59.0625 46.7578 59.0625ZM43.3125 58.0781H46.2656V43.3125H43.3125V58.0781Z" fill="#B72851"/>
<path d="M50.6953 59.0625H46.7578C46.4625 59.0625 46.2656 58.8656 46.2656 58.5703V20.1797C46.2656 19.8844 46.4625 19.6875 46.7578 19.6875H50.6953C50.9906 19.6875 51.1875 19.8844 51.1875 20.1797V58.5703C51.1875 58.8656 50.9906 59.0625 50.6953 59.0625ZM47.25 58.0781H50.2031V20.6719H47.25V58.0781Z" fill="#B72851"/>
<path d="M54.6328 59.0625H50.6953C50.4 59.0625 50.2031 58.8656 50.2031 58.5703V34.9453C50.2031 34.65 50.4 34.4531 50.6953 34.4531H54.6328C54.9281 34.4531 55.125 34.65 55.125 34.9453V58.5703C55.125 58.8656 54.9281 59.0625 54.6328 59.0625ZM51.1875 58.0781H54.1406V35.4375H51.1875V58.0781Z" fill="#B72851"/>
<path d="M58.5703 59.0625H4.42969C4.13437 59.0625 3.9375 58.8656 3.9375 58.5703C3.9375 58.275 4.13437 58.0781 4.42969 58.0781H58.5703C58.8656 58.0781 59.0625 58.275 59.0625 58.5703C59.0625 58.8656 58.8656 59.0625 58.5703 59.0625Z" fill="#B72851"/>
</svg>
