<svg width="46" height="46" viewBox="0 0 46 46" fill="none" xmlns="http://www.w3.org/2000/svg">
<path d="M12.628 9.35803C9.01272 8.63497 8.61453 8.23678 7.89147 4.6229C7.85848 4.46042 7.77033 4.31435 7.64196 4.20942C7.51359 4.1045 7.35289 4.04718 7.1871 4.04718C7.0213 4.04718 6.8606 4.1045 6.73223 4.20942C6.60386 4.31435 6.51571 4.46042 6.48272 4.6229C5.76397 8.23822 5.36147 8.63497 1.7476 9.35803C1.58512 9.39102 1.43904 9.47917 1.33412 9.60754C1.22919 9.73591 1.17188 9.89661 1.17188 10.0624C1.17188 10.2282 1.22919 10.3889 1.33412 10.5173C1.43904 10.6456 1.58512 10.7338 1.7476 10.7668C5.36291 11.4855 5.7611 11.8866 6.48272 15.5019C6.51571 15.6644 6.60386 15.8105 6.73223 15.9154C6.8606 16.0203 7.0213 16.0776 7.1871 16.0776C7.35289 16.0776 7.51359 16.0203 7.64196 15.9154C7.77033 15.8105 7.85848 15.6644 7.89147 15.5019C8.61022 11.8866 9.01272 11.4898 12.6266 10.7668C12.7891 10.7338 12.9352 10.6456 13.0401 10.5173C13.145 10.3889 13.2023 10.2282 13.2023 10.0624C13.2023 9.89661 13.145 9.73591 13.0401 9.60754C12.9352 9.47917 12.7891 9.39102 12.6266 9.35803H12.628ZM7.1871 12.6097C6.98357 12.0194 6.64829 11.4833 6.20669 11.0419C5.76509 10.6006 5.22876 10.2656 4.63841 10.0624C5.22876 9.85921 5.76509 9.52423 6.20669 9.08288C6.64829 8.64153 6.98357 8.10539 7.1871 7.51515C7.39062 8.10539 7.7259 8.64153 8.1675 9.08288C8.60911 9.52423 9.14543 9.85921 9.73578 10.0624C9.14543 10.2656 8.60911 10.6006 8.1675 11.0419C7.7259 11.4833 7.39062 12.0194 7.1871 12.6097ZM21.6196 10.0049C21.737 10.1225 21.8916 10.1959 22.0569 10.2124C22.2223 10.2289 22.3883 10.1876 22.5267 10.0955C25.5871 8.0499 26.1621 8.0499 29.224 10.094C29.3622 10.1856 29.5278 10.2266 29.6928 10.2101C29.8578 10.1935 30.012 10.1204 30.1293 10.0032C30.2465 9.8859 30.3196 9.7317 30.3362 9.56671C30.3528 9.40171 30.3118 9.23606 30.2202 9.09784C28.1746 6.0374 28.1746 5.4624 30.2202 2.40197C30.3118 2.26374 30.3528 2.0981 30.3362 1.9331C30.3196 1.7681 30.2465 1.61391 30.1293 1.49665C30.012 1.37939 29.8578 1.30629 29.6928 1.28973C29.5278 1.27317 29.3622 1.31417 29.224 1.40578C26.1621 3.4499 25.5871 3.4499 22.5252 1.40578C22.387 1.31417 22.2214 1.27317 22.0564 1.28973C21.8914 1.30629 21.7372 1.37939 21.6199 1.49665C21.5026 1.61391 21.4295 1.7681 21.413 1.9331C21.3964 2.0981 21.4374 2.26374 21.529 2.40197C23.5746 5.4624 23.5746 6.0374 21.529 9.09784C21.4369 9.23619 21.3956 9.40218 21.4121 9.56757C21.4286 9.73295 21.502 9.8875 21.6196 10.0049ZM24.0734 3.94872C24.6348 4.22177 25.251 4.36366 25.8753 4.36366C26.4996 4.36366 27.1158 4.22177 27.6772 3.94872C27.4036 4.50972 27.2613 5.12571 27.2613 5.7499C27.2613 6.3741 27.4036 6.99008 27.6772 7.55109C27.1159 7.27762 26.4997 7.1355 25.8753 7.1355C25.2509 7.1355 24.6347 7.27762 24.0734 7.55109C24.3471 6.99008 24.4893 6.3741 24.4893 5.7499C24.4893 5.12571 24.3471 4.50972 24.0734 3.94872ZM12.8796 24.4949C12.762 24.3775 12.6074 24.3044 12.442 24.2882C12.2766 24.2719 12.1107 24.3135 11.9725 24.4058C8.9121 26.4499 8.3371 26.4499 5.27522 24.4058C5.137 24.3142 4.97135 24.2732 4.80635 24.2897C4.64136 24.3063 4.48716 24.3794 4.36991 24.4967C4.25265 24.6139 4.17954 24.7681 4.16298 24.9331C4.14642 25.0981 4.18742 25.2637 4.27903 25.402C6.3246 28.4624 6.3246 29.0374 4.27903 32.0978C4.18742 32.2361 4.14642 32.4017 4.16298 32.5667C4.17954 32.7317 4.25265 32.8859 4.36991 33.0032C4.48716 33.1204 4.64136 33.1935 4.80635 33.2101C4.97135 33.2266 5.137 33.1856 5.27522 33.094C8.3371 31.0499 8.9121 31.0499 11.974 33.094C12.1122 33.1856 12.2778 33.2266 12.4428 33.2101C12.6078 33.1935 12.762 33.1204 12.8793 33.0032C12.9965 32.8859 13.0696 32.7317 13.0862 32.5667C13.1028 32.4017 13.0618 32.2361 12.9702 32.0978C10.9246 29.0374 10.9246 28.4624 12.9702 25.402C13.0623 25.2636 13.1036 25.0976 13.0871 24.9322C13.0706 24.7669 12.9972 24.6123 12.8796 24.4949ZM10.4258 30.5511C9.86051 30.2897 9.24724 30.1483 8.6246 30.1357C8.00195 30.1483 7.38868 30.2897 6.82341 30.5511C7.09707 29.9901 7.2393 29.3741 7.2393 28.7499C7.2393 28.1257 7.09707 27.5097 6.82341 26.9487C7.38485 27.2218 8.001 27.3637 8.62531 27.3637C9.24963 27.3637 9.86578 27.2218 10.4272 26.9487C10.1533 27.5096 10.0109 28.1255 10.0106 28.7497C10.0104 29.3739 10.1523 29.99 10.4258 30.5511ZM32.0918 21.0938C32.2092 21.2114 32.3637 21.2847 32.5291 21.3013C32.6945 21.3178 32.8605 21.2764 32.9988 21.1843C35.6884 19.3932 36.1843 19.3932 38.8739 21.1843C39.0121 21.276 39.1778 21.317 39.3428 21.3004C39.5078 21.2838 39.662 21.2107 39.7792 21.0935C39.8965 20.9762 39.9696 20.822 39.9861 20.657C40.0027 20.492 39.9617 20.3264 39.8701 20.1882C38.0761 17.4986 38.0761 17.0041 39.8701 14.3145C39.9617 14.1763 40.0027 14.0107 39.9861 13.8457C39.9696 13.6807 39.8965 13.5265 39.7792 13.4092C39.662 13.292 39.5078 13.2189 39.3428 13.2023C39.1778 13.1857 39.0121 13.2267 38.8739 13.3183C36.1843 15.1095 35.6884 15.1095 32.9988 13.3183C32.8606 13.2267 32.695 13.1857 32.53 13.2023C32.365 13.2189 32.2108 13.292 32.0935 13.4092C31.9763 13.5265 31.9032 13.6807 31.8866 13.8457C31.87 14.0107 31.911 14.1763 32.0027 14.3145C33.7967 17.0041 33.7967 17.4986 32.0027 20.1882C31.9109 20.3264 31.8698 20.4921 31.8863 20.6571C31.9028 20.8222 31.9759 20.9765 32.0932 21.0938H32.0918ZM34.4809 15.7952C34.9398 15.9951 35.4351 16.0983 35.9357 16.0983C36.4363 16.0983 36.9315 15.9951 37.3904 15.7952C37.1892 16.2535 37.0853 16.7486 37.0853 17.2492C37.0853 17.7498 37.1892 18.2449 37.3904 18.7032C36.9317 18.5024 36.4364 18.3987 35.9357 18.3987C35.4349 18.3987 34.9396 18.5024 34.4809 18.7032C34.6824 18.245 34.7865 17.7499 34.7868 17.2493C34.787 16.7488 34.6834 16.2536 34.4823 15.7952H34.4809ZM44.4183 38.3193L25.1041 19.0065L22.0552 15.9562C21.7214 15.6223 21.3252 15.3575 20.8891 15.1769C20.4531 14.9962 19.9857 14.9032 19.5137 14.9032C19.0416 14.9032 18.5742 14.9962 18.1382 15.1769C17.7021 15.3575 17.3059 15.6223 16.9722 15.9562L15.9558 16.9725C15.2821 17.6464 14.9036 18.5603 14.9036 19.5132C14.9036 20.4662 15.2821 21.3801 15.9558 22.054L19.0048 25.1044L38.319 44.4187C38.6528 44.7525 39.049 45.0173 39.485 45.1979C39.9211 45.3786 40.3885 45.4716 40.8605 45.4716C41.3326 45.4716 41.7999 45.3786 42.236 45.1979C42.6721 45.0173 43.0683 44.7525 43.402 44.4187L44.4183 43.4023C45.0921 42.7284 45.4705 41.8145 45.4705 40.8616C45.4705 39.9086 45.0921 38.9947 44.4183 38.3208V38.3193ZM16.9736 21.0392C16.5694 20.6348 16.3423 20.0864 16.3423 19.5147C16.3423 18.9429 16.5694 18.3946 16.9736 17.9902L17.9899 16.9739C18.1902 16.7735 18.4279 16.6146 18.6896 16.5061C18.9513 16.3977 19.2318 16.3419 19.5151 16.3419C19.7984 16.3419 20.0789 16.3977 20.3406 16.5061C20.6023 16.6146 20.84 16.7735 21.0403 16.9739L23.5746 19.514L19.5151 23.5749L16.9736 21.0392ZM43.402 42.386L42.3857 43.4023C42.1855 43.6027 41.9477 43.7617 41.686 43.8701C41.4243 43.9786 41.1438 44.0344 40.8605 44.0344C40.5773 44.0344 40.2967 43.9786 40.0351 43.8701C39.7734 43.7617 39.5356 43.6027 39.3353 43.4023L20.5314 24.597L24.5967 20.5303L43.4006 39.3357C43.8048 39.74 44.0319 40.2884 44.0319 40.8601C44.0319 41.4319 43.8048 41.9802 43.4006 42.3846L43.402 42.386Z" fill="#B72851"/>
</svg>
