<svg width="51" height="51" viewBox="0 0 51 51" fill="none" xmlns="http://www.w3.org/2000/svg">
<path d="M25.4997 23.906C24.6196 23.906 23.906 24.6196 23.906 25.4998C23.906 26.3799 24.6196 27.0935 25.4997 27.0935C26.3799 27.0935 27.0935 26.3799 27.0935 25.4998C27.0935 24.6196 26.3799 23.906 25.4997 23.906ZM19.1247 23.906C18.2446 23.906 17.531 24.6196 17.531 25.4998C17.531 26.3799 18.2446 27.0935 19.1247 27.0935C20.0049 27.0935 20.7185 26.3799 20.7185 25.4998C20.7185 24.6196 20.0049 23.906 19.1247 23.906ZM31.8747 23.906C30.9946 23.906 30.281 24.6196 30.281 25.4998C30.281 26.3799 30.9946 27.0935 31.8747 27.0935C32.7549 27.0935 33.4685 26.3799 33.4685 25.4998C33.4685 24.6196 32.7549 23.906 31.8747 23.906ZM41.2572 11.2416C33.383 2.53865 19.9445 1.86667 11.2416 9.74074C2.53859 17.6149 1.86661 31.0534 9.74068 39.7564L4.56099 44.9361C4.36177 45.1353 4.24984 45.4054 4.24984 45.6871C4.24971 46.2739 4.72545 46.7496 5.31221 46.7498H25.4997C30.7685 46.7496 35.8494 44.7921 39.7563 41.2573C48.4594 33.3831 49.1313 19.9446 41.2572 11.2416ZM25.4997 44.6248H7.87703L11.9757 40.5263C11.9758 40.5261 11.9759 40.526 11.9759 40.5259C12.3907 40.111 12.3906 39.4385 11.9757 39.0238C8.38999 35.4381 6.37523 30.5751 6.37471 25.5041C6.37355 14.9427 14.9341 6.38022 25.4954 6.37906C36.0566 6.37789 44.6193 14.9385 44.6204 25.4998C44.6216 36.061 36.061 44.6236 25.4997 44.6248Z" fill="#B72851"/>
</svg>
