<svg width="65" height="65" viewBox="0 0 65 65" fill="none" xmlns="http://www.w3.org/2000/svg">
<path d="M54.8441 34.0593L50.7816 38.8119L41.4386 48.1549C41.1906 48.403 40.8825 48.5825 40.5445 48.6762C40.2065 48.7698 39.8499 48.7743 39.5096 48.6892L24.794 45.0103C24.518 44.9413 24.2596 44.8151 24.0354 44.6398L10.1566 33.7872M61.1201 30.9213L54.8441 34.0593L46.7191 18.4994L53.059 15.3295C53.5353 15.0913 54.0861 15.0497 54.5928 15.2137C55.0994 15.3777 55.5214 15.734 55.7679 16.2061L62.0122 28.1643C62.1371 28.4034 62.2131 28.665 62.2358 28.9338C62.2584 29.2026 62.2273 29.4732 62.1443 29.7299C62.0612 29.9865 61.9279 30.2241 61.752 30.4286C61.5762 30.6332 61.3614 30.8007 61.1201 30.9213V30.9213ZM10.1566 33.7872L3.88066 30.6492C3.63939 30.5285 3.42456 30.3611 3.24871 30.1565C3.07287 29.9519 2.93953 29.7144 2.85648 29.4578C2.77343 29.2011 2.74233 28.9305 2.765 28.6617C2.78767 28.3929 2.86365 28.1313 2.98851 27.8922L9.23281 15.934C9.4793 15.4619 9.90132 15.1055 10.408 14.9416C10.9147 14.7776 11.4654 14.8192 11.9418 15.0573L18.2816 18.2273L10.1566 33.7872Z" stroke="#B72851" stroke-width="2" stroke-linecap="round" stroke-linejoin="round"/>
<path d="M50.7816 38.8127L39.6098 30.6877L36.3598 33.1252C34.9533 34.18 33.2428 34.7502 31.4848 34.7502C29.7267 34.7502 28.0162 34.18 26.6098 33.1252L25.2334 32.0929C25.0006 31.9183 24.808 31.6957 24.6687 31.4402C24.5294 31.1846 24.4466 30.9022 24.426 30.6119C24.4054 30.3216 24.4474 30.0303 24.5491 29.7576C24.6509 29.485 24.8101 29.2374 25.0158 29.0316L34.9523 19.0951C35.1409 18.9065 35.3649 18.7569 35.6113 18.6548C35.8577 18.5527 36.1219 18.5002 36.3886 18.5002H46.7191" stroke="#B72851" stroke-width="2" stroke-linecap="round" stroke-linejoin="round"/>
<path d="M28.4375 54.0465L20.7849 52.1333C20.4744 52.0557 20.1866 51.9058 19.945 51.6958L14.2188 46.7183M18.4271 18.2274L31.4576 14.4286C31.923 14.2929 32.4217 14.3282 32.8634 14.5281L41.6406 18.4996L18.4271 18.2274Z" stroke="#B72851" stroke-width="2" stroke-linecap="round" stroke-linejoin="round"/>
</svg>
