<svg width="63" height="63" viewBox="0 0 63 63" fill="none" xmlns="http://www.w3.org/2000/svg">
<path d="M50.3999 12.6H47.8799V42.84H50.3999V12.6Z" fill="#B72851"/>
<path d="M42.8396 47.88H12.5996V50.4H42.8396V47.88Z" fill="#B72851"/>
<path d="M20.1596 32.76H17.6396V45.36H20.1596V32.76Z" fill="#B72851"/>
<path d="M27.7192 25.1999H25.1992V45.3599H27.7192V25.1999Z" fill="#B72851"/>
<path d="M35.2798 17.64H32.7598V27.72H35.2798V17.64Z" fill="#B72851"/>
<path d="M42.8393 12.6H40.3193V27.72H42.8393V12.6Z" fill="#B72851"/>
<path d="M37.7993 45.3599C36.304 45.3599 34.8424 44.9165 33.5992 44.0858C32.3559 43.2551 31.3869 42.0744 30.8147 40.693C30.2425 39.3116 30.0928 37.7915 30.3845 36.325C30.6762 34.8585 31.3962 33.5115 32.4535 32.4542C33.5108 31.3969 34.8579 30.6769 36.3244 30.3852C37.7909 30.0935 39.3109 30.2432 40.6924 30.8154C42.0738 31.3876 43.2545 32.3566 44.0852 33.5998C44.9159 34.843 45.3593 36.3047 45.3593 37.7999C45.3593 39.805 44.5628 41.7279 43.145 43.1456C41.7272 44.5634 39.8043 45.3599 37.7993 45.3599ZM37.7993 32.7599C36.8024 32.7599 35.828 33.0555 34.9992 33.6093C34.1704 34.1631 33.5244 34.9503 33.1429 35.8712C32.7614 36.7921 32.6616 37.8055 32.8561 38.7832C33.0506 39.7608 33.5306 40.6589 34.2354 41.3637C34.9403 42.0686 35.8383 42.5486 36.816 42.7431C37.7937 42.9375 38.807 42.8377 39.728 42.4563C40.6489 42.0748 41.4361 41.4288 41.9899 40.6C42.5437 39.7712 42.8393 38.7967 42.8393 37.7999C42.8393 36.4632 42.3083 35.1813 41.3631 34.2361C40.4179 33.2909 39.136 32.7599 37.7993 32.7599Z" fill="#B72851"/>
<path d="M42.4626 40.6914L40.6807 42.4733L48.236 50.0286L50.0179 48.2467L42.4626 40.6914Z" fill="#B72851"/>
</svg>
