<svg width="47" height="40" viewBox="0 0 47 40" fill="none" xmlns="http://www.w3.org/2000/svg">
<path d="M5.30645 16H8.33871C8.53976 16 8.73258 15.9298 8.87474 15.8047C9.01691 15.6797 9.09677 15.5101 9.09677 15.3333C9.09677 15.1565 9.01691 14.987 8.87474 14.8619C8.73258 14.7369 8.53976 14.6667 8.33871 14.6667H5.30645C5.1054 14.6667 4.91258 14.7369 4.77042 14.8619C4.62825 14.987 4.54839 15.1565 4.54839 15.3333C4.54839 15.5101 4.62825 15.6797 4.77042 15.8047C4.91258 15.9298 5.1054 16 5.30645 16ZM6.82258 12H28.0484C28.6515 12 29.23 11.7893 29.6565 11.4142C30.083 11.0391 30.3226 10.5304 30.3226 10V6C30.3226 5.46957 30.083 4.96086 29.6565 4.58579C29.23 4.21071 28.6515 4 28.0484 4H6.82258C6.21943 4 5.64098 4.21071 5.21448 4.58579C4.78799 4.96086 4.54839 5.46957 4.54839 6V10C4.54839 10.5304 4.78799 11.0391 5.21448 11.4142C5.64098 11.7893 6.21943 12 6.82258 12ZM6.06452 6C6.06452 5.82319 6.14438 5.65362 6.28655 5.5286C6.42871 5.40357 6.62153 5.33333 6.82258 5.33333H28.0484C28.2494 5.33333 28.4423 5.40357 28.5844 5.5286C28.7266 5.65362 28.8065 5.82319 28.8065 6V10C28.8065 10.1768 28.7266 10.3464 28.5844 10.4714C28.4423 10.5964 28.2494 10.6667 28.0484 10.6667H6.82258C6.62153 10.6667 6.42871 10.5964 6.28655 10.4714C6.14438 10.3464 6.06452 10.1768 6.06452 10V6ZM29.5645 14.6667H23.5C23.2989 14.6667 23.1061 14.7369 22.964 14.8619C22.8218 14.987 22.7419 15.1565 22.7419 15.3333C22.7419 15.5101 22.8218 15.6797 22.964 15.8047C23.1061 15.9298 23.2989 16 23.5 16H29.5645C29.7656 16 29.9584 15.9298 30.1005 15.8047C30.2427 15.6797 30.3226 15.5101 30.3226 15.3333C30.3226 15.1565 30.2427 14.987 30.1005 14.8619C29.9584 14.7369 29.7656 14.6667 29.5645 14.6667ZM28.0484 17.3333H25.0161C24.413 17.3333 23.8345 17.544 23.408 17.9191C22.9815 18.2942 22.7419 18.8029 22.7419 19.3333V20.6667C22.7419 21.1971 22.9815 21.7058 23.408 22.0809C23.8345 22.456 24.413 22.6667 25.0161 22.6667H28.0484C28.6515 22.6667 29.23 22.456 29.6565 22.0809C30.083 21.7058 30.3226 21.1971 30.3226 20.6667V19.3333C30.3226 18.8029 30.083 18.2942 29.6565 17.9191C29.23 17.544 28.6515 17.3333 28.0484 17.3333ZM28.8065 20.6667C28.8065 20.8435 28.7266 21.013 28.5844 21.1381C28.4423 21.2631 28.2494 21.3333 28.0484 21.3333H25.0161C24.8151 21.3333 24.6223 21.2631 24.4801 21.1381C24.3379 21.013 24.2581 20.8435 24.2581 20.6667V19.3333C24.2581 19.1565 24.3379 18.987 24.4801 18.8619C24.6223 18.7369 24.8151 18.6667 25.0161 18.6667H28.0484C28.2494 18.6667 28.4423 18.7369 28.5844 18.8619C28.7266 18.987 28.8065 19.1565 28.8065 19.3333V20.6667ZM11.371 14.6667C11.1699 14.6667 10.9771 14.7369 10.8349 14.8619C10.6928 14.987 10.6129 15.1565 10.6129 15.3333C10.6129 15.5101 10.6928 15.6797 10.8349 15.8047C10.9771 15.9298 11.1699 16 11.371 16H14.4032C14.6043 16 14.7971 15.9298 14.9393 15.8047C15.0814 15.6797 15.1613 15.5101 15.1613 15.3333C15.1613 15.1565 15.0814 14.987 14.9393 14.8619C14.7971 14.7369 14.6043 14.6667 14.4032 14.6667H11.371ZM9.85484 17.3333H6.82258C6.21943 17.3333 5.64098 17.544 5.21448 17.9191C4.78799 18.2942 4.54839 18.8029 4.54839 19.3333V20.6667C4.54839 21.1971 4.78799 21.7058 5.21448 22.0809C5.64098 22.456 6.21943 22.6667 6.82258 22.6667H9.85484C10.458 22.6667 11.0364 22.456 11.4629 22.0809C11.8894 21.7058 12.129 21.1971 12.129 20.6667V19.3333C12.129 18.8029 11.8894 18.2942 11.4629 17.9191C11.0364 17.544 10.458 17.3333 9.85484 17.3333ZM10.6129 20.6667C10.6129 20.8435 10.533 21.013 10.3909 21.1381C10.2487 21.2631 10.0559 21.3333 9.85484 21.3333H6.82258C6.62153 21.3333 6.42871 21.2631 6.28655 21.1381C6.14438 21.013 6.06452 20.8435 6.06452 20.6667V19.3333C6.06452 19.1565 6.14438 18.987 6.28655 18.8619C6.42871 18.7369 6.62153 18.6667 6.82258 18.6667H9.85484C10.0559 18.6667 10.2487 18.7369 10.3909 18.8619C10.533 18.987 10.6129 19.1565 10.6129 19.3333V20.6667ZM36.3871 28H37.9032C38.3053 28 38.691 28.1405 38.9753 28.3905C39.2596 28.6406 39.4194 28.9797 39.4194 29.3333C39.4194 29.5101 39.4992 29.6797 39.6414 29.8047C39.7836 29.9298 39.9764 30 40.1774 30C40.3785 30 40.5713 29.9298 40.7135 29.8047C40.8556 29.6797 40.9355 29.5101 40.9355 29.3333C40.9331 28.6267 40.6128 27.9497 40.0447 27.45C39.4766 26.9504 38.7067 26.6688 37.9032 26.6667V26C37.9032 25.8232 37.8234 25.6536 37.6812 25.5286C37.539 25.4036 37.3462 25.3333 37.1452 25.3333C36.9441 25.3333 36.7513 25.4036 36.6091 25.5286C36.467 25.6536 36.3871 25.8232 36.3871 26V26.6667C35.8866 26.667 35.394 26.7763 34.9532 26.9848C34.5125 27.1933 34.1372 27.4945 33.861 27.8615C33.5848 28.2286 33.4161 28.65 33.3701 29.0883C33.3242 29.5266 33.4022 29.968 33.5974 30.3733C33.6428 30.482 33.7039 30.5851 33.7794 30.68C33.8377 30.7802 33.9089 30.8741 33.9916 30.96C34.1244 31.1212 34.2826 31.2648 34.4616 31.3867C34.5854 31.486 34.7229 31.5711 34.871 31.64C35.3316 31.875 35.8545 31.9992 36.3871 32H37.9032C38.3053 32 38.691 32.1405 38.9753 32.3905C39.2596 32.6406 39.4194 32.9797 39.4194 33.3333C39.4194 33.687 39.2596 34.0261 38.9753 34.2761C38.691 34.5262 38.3053 34.6667 37.9032 34.6667H36.3871C35.985 34.6667 35.5994 34.5262 35.315 34.2761C35.0307 34.0261 34.871 33.687 34.871 33.3333C34.871 33.1565 34.7911 32.987 34.6489 32.8619C34.5068 32.7369 34.314 32.6667 34.1129 32.6667C33.9118 32.6667 33.719 32.7369 33.5769 32.8619C33.4347 32.987 33.3548 33.1565 33.3548 33.3333C33.3548 34.0406 33.6743 34.7189 34.243 35.219C34.8116 35.719 35.5829 36 36.3871 36V36.6667C36.3871 36.8435 36.467 37.0131 36.6091 37.1381C36.7513 37.2631 36.9441 37.3333 37.1452 37.3333C37.3462 37.3333 37.539 37.2631 37.6812 37.1381C37.8234 37.0131 37.9032 36.8435 37.9032 36.6667V36C38.7074 36 39.4787 35.719 40.0474 35.219C40.616 34.7189 40.9355 34.0406 40.9355 33.3333C40.9355 32.6261 40.616 31.9478 40.0474 31.4477C39.4787 30.9476 38.7074 30.6667 37.9032 30.6667H36.3871C35.985 30.6667 35.5994 30.5262 35.315 30.2761C35.0307 30.0261 34.871 29.687 34.871 29.3333C34.871 28.9797 35.0307 28.6406 35.315 28.3905C35.5994 28.1405 35.985 28 36.3871 28ZM9.85484 30.6667H6.82258C6.21943 30.6667 5.64098 30.8774 5.21448 31.2525C4.78799 31.6275 4.54839 32.1362 4.54839 32.6667V34C4.54839 34.5304 4.78799 35.0391 5.21448 35.4142C5.64098 35.7893 6.21943 36 6.82258 36H9.85484C10.458 36 11.0364 35.7893 11.4629 35.4142C11.8894 35.0391 12.129 34.5304 12.129 34V32.6667C12.129 32.1362 11.8894 31.6275 11.4629 31.2525C11.0364 30.8774 10.458 30.6667 9.85484 30.6667ZM10.6129 34C10.6129 34.1768 10.533 34.3464 10.3909 34.4714C10.2487 34.5964 10.0559 34.6667 9.85484 34.6667H6.82258C6.62153 34.6667 6.42871 34.5964 6.28655 34.4714C6.14438 34.3464 6.06452 34.1768 6.06452 34V32.6667C6.06452 32.4899 6.14438 32.3203 6.28655 32.1953C6.42871 32.0702 6.62153 32 6.82258 32H9.85484C10.0559 32 10.2487 32.0702 10.3909 32.1953C10.533 32.3203 10.6129 32.4899 10.6129 32.6667V34ZM18.9516 17.3333H15.9194C15.3162 17.3333 14.7378 17.544 14.3113 17.9191C13.8848 18.2942 13.6452 18.8029 13.6452 19.3333V20.6667C13.6452 21.1971 13.8848 21.7058 14.3113 22.0809C14.7378 22.456 15.3162 22.6667 15.9194 22.6667H18.9516C19.5548 22.6667 20.1332 22.456 20.5597 22.0809C20.9862 21.7058 21.2258 21.1971 21.2258 20.6667V19.3333C21.2258 18.8029 20.9862 18.2942 20.5597 17.9191C20.1332 17.544 19.5548 17.3333 18.9516 17.3333ZM19.7097 20.6667C19.7097 20.8435 19.6298 21.013 19.4876 21.1381C19.3455 21.2631 19.1527 21.3333 18.9516 21.3333H15.9194C15.7183 21.3333 15.5255 21.2631 15.3833 21.1381C15.2412 21.013 15.1613 20.8435 15.1613 20.6667V19.3333C15.1613 19.1565 15.2412 18.987 15.3833 18.8619C15.5255 18.7369 15.7183 18.6667 15.9194 18.6667H18.9516C19.1527 18.6667 19.3455 18.7369 19.4876 18.8619C19.6298 18.987 19.7097 19.1565 19.7097 19.3333V20.6667ZM37.1452 22.6667C36.3788 22.6643 35.615 22.7449 34.871 22.9067V3.33333C34.871 2.89559 34.7729 2.46214 34.5824 2.05772C34.392 1.6533 34.1128 1.28584 33.7608 0.976311C33.4088 0.666782 32.991 0.421251 32.5311 0.253735C32.0713 0.0862192 31.5784 0 31.0806 0H3.79032C2.78507 0 1.82098 0.351189 1.11016 0.976311C0.399336 1.60143 0 2.44928 0 3.33333V36.6667C0 37.5507 0.399336 38.3986 1.11016 39.0237C1.82098 39.6488 2.78507 40 3.79032 40H31.0806C31.9008 40 32.6987 39.7661 33.3548 39.3333C34.7007 39.8265 36.1543 40.0509 37.6107 39.9903C39.0671 39.9298 40.4901 39.5857 41.7771 38.9831C43.064 38.3804 44.1829 37.5341 45.053 36.5052C45.923 35.4762 46.5227 34.2904 46.8086 33.033C47.0946 31.7757 47.0597 30.4782 46.7065 29.2341C46.3534 27.99 45.6907 26.8304 44.7663 25.8388C43.8419 24.8471 42.6789 24.0483 41.361 23.4997C40.0431 22.9512 38.6032 22.6667 37.1452 22.6667ZM31.0806 38.6667H3.79032C3.18717 38.6667 2.60872 38.456 2.18222 38.0809C1.75573 37.7058 1.51613 37.1971 1.51613 36.6667V3.33333C1.51613 2.8029 1.75573 2.29419 2.18222 1.91912C2.60872 1.54405 3.18717 1.33333 3.79032 1.33333H31.0806C31.6838 1.33333 32.2622 1.54405 32.6887 1.91912C33.1152 2.29419 33.3548 2.8029 33.3548 3.33333V23.3333C32.1533 23.7789 31.0655 24.4317 30.1558 25.2533C29.9866 24.8835 29.6955 24.5666 29.32 24.3433C28.9445 24.1199 28.5017 24.0004 28.0484 24H25.0161C24.413 24 23.8345 24.2107 23.408 24.5858C22.9815 24.9609 22.7419 25.4696 22.7419 26V27.3333C22.7419 27.8638 22.9815 28.3725 23.408 28.7475C23.8345 29.1226 24.413 29.3333 25.0161 29.3333H27.5632C27.4431 29.7716 27.362 30.2174 27.3206 30.6667H25.0161C24.413 30.6667 23.8345 30.8774 23.408 31.2525C22.9815 31.6275 22.7419 32.1362 22.7419 32.6667V34C22.7419 34.5304 22.9815 35.0391 23.408 35.4142C23.8345 35.7893 24.413 36 25.0161 36H28.0484C28.2975 36.0014 28.5446 35.9607 28.7761 35.88C29.5218 36.9598 30.5318 37.8799 31.7326 38.5733C31.5231 38.6377 31.3025 38.6693 31.0806 38.6667ZM28.8065 26V27.3333C28.8065 27.5101 28.7266 27.6797 28.5844 27.8047C28.4423 27.9298 28.2494 28 28.0484 28H25.0161C24.8151 28 24.6223 27.9298 24.4801 27.8047C24.3379 27.6797 24.2581 27.5101 24.2581 27.3333V26C24.2581 25.8232 24.3379 25.6536 24.4801 25.5286C24.6223 25.4036 24.8151 25.3333 25.0161 25.3333H28.0484C28.2494 25.3333 28.4423 25.4036 28.5844 25.5286C28.7266 25.6536 28.8065 25.8232 28.8065 26ZM28.0484 34.6667H25.0161C24.8151 34.6667 24.6223 34.5964 24.4801 34.4714C24.3379 34.3464 24.2581 34.1768 24.2581 34V32.6667C24.2581 32.4899 24.3379 32.3203 24.4801 32.1953C24.6223 32.0702 24.8151 32 25.0161 32H27.3206C27.3955 32.9179 27.6413 33.8188 28.0484 34.6667ZM37.1452 38.6667C36.2153 38.6672 35.2922 38.5274 34.4161 38.2533C33.9287 38.1134 33.4608 37.9256 33.0213 37.6933C31.7458 37.0518 30.6848 36.1263 29.945 35.0099C29.2051 33.8935 28.8125 32.6255 28.8065 31.3333C28.801 31.1551 28.8112 30.9768 28.8368 30.8C28.9362 29.4803 29.4506 28.2109 30.3226 27.1333C31.0991 26.151 32.1411 25.3538 33.3548 24.8133C33.8374 24.589 34.3456 24.4102 34.871 24.28C35.61 24.092 36.3758 23.9977 37.1452 24C39.3567 24 41.4777 24.7726 43.0415 26.1479C44.6053 27.5232 45.4839 29.3884 45.4839 31.3333C45.4839 33.2783 44.6053 35.1435 43.0415 36.5188C41.4777 37.8941 39.3567 38.6667 37.1452 38.6667ZM20.4677 14.6667H17.4355C17.2344 14.6667 17.0416 14.7369 16.8995 14.8619C16.7573 14.987 16.6774 15.1565 16.6774 15.3333C16.6774 15.5101 16.7573 15.6797 16.8995 15.8047C17.0416 15.9298 17.2344 16 17.4355 16H20.4677C20.6688 16 20.8616 15.9298 21.0038 15.8047C21.1459 15.6797 21.2258 15.5101 21.2258 15.3333C21.2258 15.1565 21.1459 14.987 21.0038 14.8619C20.8616 14.7369 20.6688 14.6667 20.4677 14.6667ZM18.9516 24H15.9194C15.3162 24 14.7378 24.2107 14.3113 24.5858C13.8848 24.9609 13.6452 25.4696 13.6452 26V27.3333C13.6452 27.8638 13.8848 28.3725 14.3113 28.7475C14.7378 29.1226 15.3162 29.3333 15.9194 29.3333H18.9516C19.5548 29.3333 20.1332 29.1226 20.5597 28.7475C20.9862 28.3725 21.2258 27.8638 21.2258 27.3333V26C21.2258 25.4696 20.9862 24.9609 20.5597 24.5858C20.1332 24.2107 19.5548 24 18.9516 24ZM19.7097 27.3333C19.7097 27.5101 19.6298 27.6797 19.4876 27.8047C19.3455 27.9298 19.1527 28 18.9516 28H15.9194C15.7183 28 15.5255 27.9298 15.3833 27.8047C15.2412 27.6797 15.1613 27.5101 15.1613 27.3333V26C15.1613 25.8232 15.2412 25.6536 15.3833 25.5286C15.5255 25.4036 15.7183 25.3333 15.9194 25.3333H18.9516C19.1527 25.3333 19.3455 25.4036 19.4876 25.5286C19.6298 25.6536 19.7097 25.8232 19.7097 26V27.3333ZM9.85484 24H6.82258C6.21943 24 5.64098 24.2107 5.21448 24.5858C4.78799 24.9609 4.54839 25.4696 4.54839 26V27.3333C4.54839 27.8638 4.78799 28.3725 5.21448 28.7475C5.64098 29.1226 6.21943 29.3333 6.82258 29.3333H9.85484C10.458 29.3333 11.0364 29.1226 11.4629 28.7475C11.8894 28.3725 12.129 27.8638 12.129 27.3333V26C12.129 25.4696 11.8894 24.9609 11.4629 24.5858C11.0364 24.2107 10.458 24 9.85484 24ZM10.6129 27.3333C10.6129 27.5101 10.533 27.6797 10.3909 27.8047C10.2487 27.9298 10.0559 28 9.85484 28H6.82258C6.62153 28 6.42871 27.9298 6.28655 27.8047C6.14438 27.6797 6.06452 27.5101 6.06452 27.3333V26C6.06452 25.8232 6.14438 25.6536 6.28655 25.5286C6.42871 25.4036 6.62153 25.3333 6.82258 25.3333H9.85484C10.0559 25.3333 10.2487 25.4036 10.3909 25.5286C10.533 25.6536 10.6129 25.8232 10.6129 26V27.3333ZM18.9516 30.6667H15.9194C15.3162 30.6667 14.7378 30.8774 14.3113 31.2525C13.8848 31.6275 13.6452 32.1362 13.6452 32.6667V34C13.6452 34.5304 13.8848 35.0391 14.3113 35.4142C14.7378 35.7893 15.3162 36 15.9194 36H18.9516C19.5548 36 20.1332 35.7893 20.5597 35.4142C20.9862 35.0391 21.2258 34.5304 21.2258 34V32.6667C21.2258 32.1362 20.9862 31.6275 20.5597 31.2525C20.1332 30.8774 19.5548 30.6667 18.9516 30.6667ZM19.7097 34C19.7097 34.1768 19.6298 34.3464 19.4876 34.4714C19.3455 34.5964 19.1527 34.6667 18.9516 34.6667H15.9194C15.7183 34.6667 15.5255 34.5964 15.3833 34.4714C15.2412 34.3464 15.1613 34.1768 15.1613 34V32.6667C15.1613 32.4899 15.2412 32.3203 15.3833 32.1953C15.5255 32.0702 15.7183 32 15.9194 32H18.9516C19.1527 32 19.3455 32.0702 19.4876 32.1953C19.6298 32.3203 19.7097 32.4899 19.7097 32.6667V34Z" fill="#B72851"/>
</svg>
