<svg width="201" height="51" viewBox="0 0 201 51" fill="none" xmlns="http://www.w3.org/2000/svg">
<g clip-path="url(#clip0_211:2053)">
<path d="M51.0624 26.9207L38.8189 39.3302C35.1564 43.0429 30.2915 45.0863 25.1168 45.0863C19.9419 45.0863 15.0772 43.0427 11.417 39.3302C7.75484 35.6176 5.74147 30.6914 5.74147 25.4518C5.74147 20.2097 7.75481 15.2833 11.417 11.5707C15.0772 7.85753 19.9419 5.81391 25.1168 5.81391C29.0286 5.81391 32.7731 6.98225 35.9595 9.17137L39.7259 5.35311C30.096 -1.85065 16.4162 -1.02516 7.71284 7.79811C3.05312 12.522 0.5 18.7901 0.5 25.4677C0.5 32.1443 3.07096 38.4127 7.71341 43.1373L51.0624 26.9207ZM51.0624 26.9207L54.8082 30.7175L42.5557 43.1361L51.0624 26.9207ZM77.351 50.4468L77.351 42.5608L77.3558 42.5657V41.3449V9.04229V7.82341L76.4998 8.69116L61.1422 24.2603L61.1412 24.2592L60.767 24.6358L60.4461 24.9589L60.4448 24.9602L56.3655 29.0955L52.2629 24.9946L52.1165 24.8482H52.1138L38.8327 11.5893C38.8319 11.5885 38.8311 11.5877 38.8303 11.5868C38.5088 11.2565 38.1765 10.9388 37.8368 10.6378L41.5601 6.86324C41.8902 7.16033 42.2132 7.46995 42.5369 7.79812L42.5396 7.8008L55.9859 21.2272L56.3419 21.5826L56.6951 21.2245L77.0999 0.538356L82.6314 0.50758L82.6314 50.4468H77.351ZM25.1352 50.4461C18.554 50.4461 12.3567 47.8598 7.71351 43.1374L42.5552 43.1367C37.895 47.8447 31.7125 50.4461 25.1352 50.4461ZM61.7158 26.9298L75.074 40.2707L75.074 48.3719L57.9669 30.73L61.7158 26.9298Z" fill="#B72851" stroke="#B72851"/>
<path d="M83.1309 0.000228882V50.9439H76.871V9.03715L61.1416 24.9856L60.8206 25.3087L56.3886 29.8015L56.3269 29.7415L51.9293 25.3456H51.9268L51.9245 25.3433L38.4941 11.9354C38.1664 11.6033 37.8272 11.28 37.4812 10.9708C37.3651 10.8692 37.249 10.77 37.1306 10.6708C37.1284 10.6708 37.1261 10.6685 37.124 10.6659L41.572 6.15669C41.5743 6.15923 41.5765 6.16154 41.5786 6.16154C42.0338 6.55615 42.4709 6.98077 42.908 7.40746L56.3542 20.8338L76.905 0L83.1309 0V0.000228882Z" fill="#41447B"/>
<path d="M112.952 23.6471C112.548 23.2761 112.127 23.0114 111.706 22.8529C111.284 22.6765 110.828 22.6059 110.336 22.6059C109.336 22.6059 108.546 22.9057 107.949 23.5059C107.352 24.1059 107.054 24.9176 107.054 25.9234C107.054 26.9119 107.335 27.7061 107.879 28.2706C108.423 28.8531 109.178 29.1353 110.126 29.1353C110.67 29.1353 111.161 29.0471 111.635 28.8706C112.092 28.6941 112.531 28.4118 112.934 28.0588L112.917 30.1233C112.495 30.3704 112.039 30.5645 111.583 30.6879C111.109 30.8116 110.617 30.8824 110.108 30.8824C108.616 30.8824 107.387 30.4232 106.439 29.4882C105.492 28.5528 105 27.3706 105 25.9412C105 24.5114 105.474 23.3292 106.439 22.3938C107.405 21.4586 108.634 21 110.143 21C110.652 21 111.144 21.0528 111.618 21.1585C112.092 21.2647 112.566 21.4232 113.022 21.6528L112.952 23.6471Z" fill="black"/>
<path d="M123.677 30.6H121.378L118.92 26.2063V30.6H116.919V21.1943H119.78C120.921 21.1943 121.764 21.4236 122.343 21.8647C122.905 22.3059 123.186 22.9767 123.186 23.859C123.186 24.5118 122.993 25.0592 122.606 25.5179C122.22 25.9767 121.711 26.2414 121.097 26.3296L123.677 30.6ZM118.903 25.2177H119.201C120.008 25.2177 120.553 25.1295 120.798 24.953C121.062 24.7765 121.185 24.459 121.185 24.0179C121.185 23.559 121.044 23.2238 120.763 23.0296C120.482 22.8352 119.956 22.7295 119.183 22.7295H118.885V25.2177H118.903Z" fill="black"/>
<path d="M126.925 30.6V21.1943H132.437V22.8885H128.926V24.8296H132.437V26.5412H128.926V28.9059H132.437V30.6179H126.925V30.6Z" fill="black"/>
<path d="M140.002 22.9059V30.6H138.001V22.9059H135.719V21.1943H142.301V22.9059H140.002Z" fill="black"/>
<path d="M144.882 30.6L146.304 21.1943H148.393L150.201 26.7355C150.236 26.8589 150.288 27.0179 150.324 27.2469C150.376 27.4765 150.411 27.7236 150.446 28.0059C150.481 27.7236 150.517 27.4589 150.569 27.2295C150.604 27.0002 150.657 26.8414 150.692 26.7177L152.535 21.1943H154.606L156.046 30.6H154.15L153.466 24.9179C153.413 24.4943 153.378 24.1769 153.36 23.9649C153.343 23.7533 153.343 23.5592 153.343 23.3649C153.343 23.259 153.343 23.1885 153.343 23.1357C153.343 23.0826 153.343 23.0475 153.36 23.012C153.29 23.3829 153.238 23.7002 153.185 23.9649C153.132 24.2296 153.079 24.4416 153.027 24.5649L150.991 30.6H149.867L147.919 24.5824C147.901 24.5296 147.866 24.3708 147.813 24.1236C147.76 23.8763 147.673 23.5059 147.568 23.0116V23.2943C147.568 23.7355 147.533 24.2649 147.445 24.9002V24.9179L146.76 30.6H144.882Z" fill="black"/>
<path d="M158.293 30.6L161.857 21.1943H164.139L167.755 30.6H165.473L164.718 28.6061H161.102L160.452 30.6H158.293ZM164.261 27.0353L163.208 24.0002C163.173 23.912 163.138 23.7532 163.085 23.541C163.032 23.3295 162.998 23.0471 162.945 22.7293C162.892 23.0295 162.839 23.3118 162.787 23.541C162.734 23.7881 162.699 23.9471 162.664 24.0353L161.646 27.0353H164.261Z" fill="black"/>
<path d="M177.602 30.6H175.302L172.845 26.2063V30.6H170.844V21.1943H173.705C174.846 21.1943 175.689 21.4236 176.268 21.8647C176.83 22.3059 177.111 22.9767 177.111 23.859C177.111 24.5118 176.918 25.0592 176.531 25.5179C176.145 25.9767 175.636 26.2414 175.022 26.3296L177.602 30.6ZM172.845 25.2177H173.144C173.951 25.2177 174.495 25.1295 174.741 24.953C175.004 24.7765 175.127 24.459 175.127 24.0179C175.127 23.559 174.987 23.2238 174.706 23.0296C174.425 22.8352 173.898 22.7295 173.126 22.7295H172.828V25.2177H172.845Z" fill="black"/>
<path d="M180.867 30.6V21.1943H182.868V25.4647L185.993 21.2118H188.31L184.957 25.5002L188.433 30.6179H186.028L182.886 25.6943V30.6179H180.867V30.6Z" fill="black"/>
</g>
<defs>
<clipPath id="clip0_211:2053">
<rect width="201" height="51" fill="white"/>
</clipPath>
</defs>
</svg>
