<svg width="61" height="270" viewBox="0 0 61 270" fill="none" xmlns="http://www.w3.org/2000/svg">
<path d="M22.832 94.44C22.832 93.272 23.032 92.216 23.432 91.272C23.832 90.344 24.408 89.608 25.16 89.064C25.912 88.52 26.8 88.24 27.824 88.224L27.824 91.824C27.136 91.872 26.592 92.112 26.192 92.544C25.792 92.992 25.592 93.6 25.592 94.368C25.592 95.152 25.776 95.768 26.144 96.216C26.528 96.664 27.024 96.888 27.632 96.888C28.128 96.888 28.536 96.736 28.856 96.432C29.176 96.128 29.424 95.744 29.6 95.28C29.792 94.832 30 94.208 30.224 93.408C30.544 92.32 30.856 91.432 31.16 90.744C31.48 90.072 31.952 89.488 32.576 88.992C33.216 88.512 34.064 88.272 35.12 88.272C36.112 88.272 36.976 88.52 37.712 89.016C38.448 89.512 39.008 90.208 39.392 91.104C39.792 92 39.992 93.024 39.992 94.176C39.992 95.904 39.568 97.304 38.72 98.376C37.888 99.464 36.72 100.064 35.216 100.176L35.216 96.48C35.792 96.448 36.264 96.2 36.632 95.736C37.016 95.288 37.208 94.688 37.208 93.936C37.208 93.28 37.04 92.752 36.704 92.352C36.368 91.968 35.88 91.776 35.24 91.776C34.792 91.776 34.416 91.92 34.112 92.208C33.824 92.512 33.584 92.88 33.392 93.312C33.216 93.76 33.008 94.384 32.768 95.184C32.448 96.272 32.128 97.16 31.808 97.848C31.488 98.536 31.008 99.128 30.368 99.624C29.728 100.12 28.888 100.368 27.848 100.368C26.952 100.368 26.12 100.136 25.352 99.672C24.584 99.208 23.968 98.528 23.504 97.632C23.056 96.736 22.832 95.672 22.832 94.44ZM33.536 107.193L27.104 107.193C26.656 107.193 26.328 107.297 26.12 107.505C25.928 107.729 25.832 108.097 25.832 108.609L25.832 110.169L23 110.169L23 108.057C23 105.225 24.376 103.809 27.128 103.809L33.536 103.809L33.536 102.225L36.296 102.225L36.296 103.809L39.584 103.809L39.584 107.193L36.296 107.193L36.296 110.169L33.536 110.169L33.536 107.193ZM29.696 111.722C31.04 111.722 32.232 111.986 33.272 112.514C34.312 113.058 35.112 113.786 35.672 114.698C36.232 115.626 36.512 116.658 36.512 117.794C36.512 118.786 36.312 119.65 35.912 120.386C35.512 121.138 35.008 121.738 34.4 122.186L36.296 122.186L36.296 125.57L23 125.57L23 122.186L24.944 122.186C24.32 121.754 23.8 121.154 23.384 120.386C22.984 119.634 22.784 118.762 22.784 117.77C22.784 116.65 23.072 115.626 23.648 114.698C24.224 113.786 25.032 113.058 26.072 112.514C27.128 111.986 28.336 111.722 29.696 111.722ZM29.648 122.186C30.464 122.186 31.16 122.026 31.736 121.706C32.328 121.386 32.776 120.954 33.08 120.41C33.4 119.866 33.56 119.282 33.56 118.658C33.56 118.034 33.408 117.458 33.104 116.93C32.8 116.402 32.352 115.97 31.76 115.634C31.184 115.314 30.496 115.154 29.696 115.154C28.896 115.154 28.192 115.314 27.584 115.634C26.992 115.97 26.536 116.402 26.216 116.93C25.896 117.474 25.736 118.05 25.736 118.658C25.736 119.282 25.888 119.866 26.192 120.41C26.512 120.954 26.96 121.386 27.536 121.706C28.128 122.026 28.832 122.186 29.648 122.186ZM34.232 132.211C34.936 132.643 35.488 133.203 35.888 133.891C36.288 134.595 36.488 135.395 36.488 136.291L32.96 136.291L32.96 135.403C32.96 134.347 32.712 133.547 32.216 133.003C31.72 132.475 30.856 132.211 29.624 132.211L23 132.211L23 128.851L36.296 128.851L36.296 132.211L34.232 132.211ZM33.536 142.466L27.104 142.466C26.656 142.466 26.328 142.57 26.12 142.778C25.928 143.002 25.832 143.37 25.832 143.882L25.832 145.442L23 145.442L23 143.33C23 140.498 24.376 139.082 27.128 139.082L33.536 139.082L33.536 137.498L36.296 137.498L36.296 139.082L39.584 139.082L39.584 142.466L36.296 142.466L36.296 145.442L33.536 145.442L33.536 142.466ZM29.696 152.714C31.04 152.714 32.232 152.978 33.272 153.506C34.312 154.05 35.112 154.778 35.672 155.69C36.232 156.618 36.512 157.65 36.512 158.786C36.512 159.778 36.312 160.642 35.912 161.378C35.512 162.13 35.008 162.73 34.4 163.178L36.296 163.178L36.296 166.562L23 166.562L23 163.178L24.944 163.178C24.32 162.746 23.8 162.146 23.384 161.378C22.984 160.626 22.784 159.754 22.784 158.762C22.784 157.642 23.072 156.618 23.648 155.69C24.224 154.778 25.032 154.05 26.072 153.506C27.128 152.978 28.336 152.714 29.696 152.714ZM29.648 163.178C30.464 163.178 31.16 163.018 31.736 162.698C32.328 162.378 32.776 161.946 33.08 161.402C33.4 160.858 33.56 160.274 33.56 159.65C33.56 159.026 33.408 158.45 33.104 157.922C32.8 157.394 32.352 156.962 31.76 156.626C31.184 156.306 30.496 156.146 29.696 156.146C28.896 156.146 28.192 156.306 27.584 156.626C26.992 156.962 26.536 157.394 26.216 157.922C25.896 158.466 25.736 159.042 25.736 159.65C25.736 160.274 25.888 160.858 26.192 161.402C26.512 161.946 26.96 162.378 27.536 162.698C28.128 163.018 28.832 163.178 29.648 163.178ZM34.568 187.778C33.672 187.778 32.832 187.562 32.048 187.13C31.264 186.714 30.632 186.05 30.152 185.138C29.672 184.242 29.432 183.106 29.432 181.73L29.432 178.922L23 178.922L23 175.562L39.752 175.562L39.752 181.73C39.752 183.026 39.528 184.13 39.08 185.042C38.632 185.954 38.016 186.634 37.232 187.082C36.448 187.546 35.56 187.778 34.568 187.778ZM32.144 181.586C32.144 182.514 32.352 183.202 32.768 183.65C33.2 184.098 33.8 184.322 34.568 184.322C36.2 184.322 37.016 183.41 37.016 181.586L37.016 178.922L32.144 178.922L32.144 181.586ZM34.232 193.524C34.936 193.956 35.488 194.516 35.888 195.204C36.288 195.908 36.488 196.708 36.488 197.604L32.96 197.604L32.96 196.716C32.96 195.66 32.712 194.86 32.216 194.316C31.72 193.788 30.856 193.524 29.624 193.524L23 193.524L23 190.164L36.296 190.164L36.296 193.524L34.232 193.524ZM22.784 205.771C22.784 204.491 23.064 203.339 23.624 202.315C24.2 201.291 25.008 200.483 26.048 199.891C27.088 199.315 28.288 199.027 29.648 199.027C31.008 199.027 32.208 199.323 33.248 199.915C34.288 200.523 35.088 201.347 35.648 202.387C36.224 203.427 36.512 204.587 36.512 205.867C36.512 207.147 36.224 208.307 35.648 209.347C35.088 210.387 34.288 211.203 33.248 211.795C32.208 212.403 31.008 212.707 29.648 212.707C28.288 212.707 27.088 212.395 26.048 211.771C25.008 211.163 24.2 210.331 23.624 209.275C23.064 208.235 22.784 207.067 22.784 205.771ZM25.712 205.771C25.712 206.379 25.856 206.947 26.144 207.475C26.448 208.019 26.896 208.451 27.488 208.771C28.08 209.091 28.8 209.251 29.648 209.251C30.912 209.251 31.88 208.915 32.552 208.243C33.24 207.587 33.584 206.779 33.584 205.819C33.584 204.859 33.24 204.051 32.552 203.395C31.88 202.755 30.912 202.435 29.648 202.435C28.384 202.435 27.408 202.747 26.72 203.371C26.048 204.011 25.712 204.811 25.712 205.771ZM37.88 216.876C37.88 216.268 38.064 215.764 38.432 215.364C38.816 214.98 39.288 214.788 39.848 214.788C40.408 214.788 40.872 214.98 41.24 215.364C41.624 215.764 41.816 216.268 41.816 216.876C41.816 217.468 41.624 217.956 41.24 218.34C40.872 218.724 40.408 218.916 39.848 218.916C39.288 218.916 38.816 218.724 38.432 218.34C38.064 217.956 37.88 217.468 37.88 216.876ZM20.816 218.532C19.344 218.532 18.288 218.164 17.648 217.428C16.992 216.708 16.664 215.668 16.664 214.308L16.664 212.82L19.52 212.82L19.52 213.78C19.52 214.292 19.624 214.652 19.832 214.86C20.024 215.068 20.344 215.172 20.792 215.172L36.296 215.172L36.296 218.532L20.816 218.532ZM29.936 234.211C29.456 234.211 29.024 234.179 28.64 234.115L28.64 224.395C27.68 224.475 26.928 224.811 26.384 225.403C25.84 225.995 25.568 226.723 25.568 227.587C25.568 228.835 26.104 229.723 27.176 230.251L27.176 233.875C25.896 233.491 24.84 232.755 24.008 231.667C23.192 230.579 22.784 229.243 22.784 227.659C22.784 226.379 23.064 225.227 23.624 224.203C24.2 223.195 25.008 222.403 26.048 221.827C27.088 221.267 28.288 220.987 29.648 220.987C31.024 220.987 32.232 221.267 33.272 221.827C34.312 222.387 35.112 223.171 35.672 224.179C36.232 225.187 36.512 226.347 36.512 227.659C36.512 228.923 36.24 230.051 35.696 231.043C35.152 232.051 34.376 232.827 33.368 233.371C32.376 233.931 31.232 234.211 29.936 234.211ZM30.896 230.731C31.76 230.715 32.448 230.403 32.96 229.795C33.488 229.187 33.752 228.443 33.752 227.563C33.752 226.731 33.496 226.027 32.984 225.451C32.488 224.891 31.792 224.547 30.896 224.419L30.896 230.731ZM29.648 235.8C31.024 235.8 32.224 236.08 33.248 236.64C34.288 237.2 35.088 237.976 35.648 238.968C36.224 239.96 36.512 241.096 36.512 242.376C36.512 244.024 36.096 245.384 35.264 246.456C34.448 247.544 33.296 248.272 31.808 248.64L31.808 245.016C32.384 244.824 32.832 244.496 33.152 244.032C33.488 243.584 33.656 243.024 33.656 242.352C33.656 241.392 33.304 240.632 32.6 240.072C31.912 239.512 30.928 239.232 29.648 239.232C28.384 239.232 27.4 239.512 26.696 240.072C26.008 240.632 25.664 241.392 25.664 242.352C25.664 243.712 26.272 244.6 27.488 245.016L27.488 248.64C26.048 248.272 24.904 247.544 24.056 246.456C23.208 245.368 22.784 244.008 22.784 242.376C22.784 241.096 23.064 239.96 23.624 238.968C24.2 237.976 25 237.2 26.024 236.64C27.064 236.08 28.272 235.8 29.648 235.8ZM33.536 255.013L27.104 255.013C26.656 255.013 26.328 255.117 26.12 255.325C25.928 255.549 25.832 255.917 25.832 256.429L25.832 257.989L23 257.989L23 255.877C23 253.045 24.376 251.629 27.128 251.629L33.536 251.629L33.536 250.045L36.296 250.045L36.296 251.629L39.584 251.629L39.584 255.013L36.296 255.013L36.296 257.989L33.536 257.989L33.536 255.013Z" fill="#121212"/>
<path fill-rule="evenodd" clip-rule="evenodd" d="M30.3463 7.88318e-07C45.169 -0.00372541 55.736 13.2028 59.8151 27.5382C63.4337 40.2552 58.577 53.758 47.7991 61.3354C37.6019 68.5046 24.1937 66.9806 14.0804 59.6922C3.72931 52.2325 -2.44344 39.9065 0.922844 27.553C4.83928 13.1807 15.5322 0.00372484 30.3463 7.88318e-07Z" fill="#B72851"/>
</svg>
