<svg width="30" height="30" viewBox="0 0 30 30" fill="none" xmlns="http://www.w3.org/2000/svg">
<path d="M5.5 24C6.32843 24 7 23.3284 7 22.5C7 21.6716 6.32843 21 5.5 21C4.67157 21 4 21.6716 4 22.5C4 23.3284 4.67157 24 5.5 24Z" fill="#121212"/>
<path d="M24.8586 21H10.1414C9.51104 21 9 21.6313 9 22.41V22.59C9 23.3687 9.51104 24 10.1414 24H24.8586C25.489 24 26 23.3687 26 22.59V22.41C26 21.6313 25.489 21 24.8586 21Z" fill="#121212"/>
<path d="M5.47714 10L24.5229 10C25.3387 10 26 9.36872 26 8.59L26 8.41C26 7.63128 25.3387 7 24.5229 7L5.47714 7C4.66134 7 4 7.63128 4 8.41L4 8.59C4 9.36872 4.66134 10 5.47714 10Z" fill="#121212"/>
<path d="M24.8511 14H5.14889C4.51438 14 4 14.6313 4 15.41V15.59C4 16.3687 4.51438 17 5.14889 17H24.8511C25.4856 17 26 16.3687 26 15.59V15.41C26 14.6313 25.4856 14 24.8511 14Z" fill="#121212"/>
</svg>
